<?xml version="1.0" standalone="no"?>
<!DOCTYPE svg PUBLIC "-//W3C//DTD SVG 20010904//EN"
 "http://www.w3.org/TR/2001/REC-SVG-20010904/DTD/svg10.dtd">
<svg version="1.0" xmlns="http://www.w3.org/2000/svg"
 width="874.000000pt" height="874.000000pt" viewBox="0 0 874.000000 874.000000"
 preserveAspectRatio="xMidYMid meet">
<metadata>
Created by potrace 1.11, written by Peter Selinger 2001-2013
</metadata>
<g transform="translate(0.000000,874.000000) scale(0.100000,-0.100000)"
fill="#000000" stroke="none">
<path d="M62 6904 l-1 -115 167 7 c92 4 174 6 184 6 14 -1 13 7 -9 60 -13 33
-27 83 -30 109 l-6 49 -152 0 -152 0 -1 -116z"/>
<path d="M413 6970 c3 -28 18 -77 32 -109 l26 -58 57 3 c31 2 140 6 242 9 192
7 320 12 356 14 21 1 21 5 18 89 -1 48 -3 90 -3 95 -1 4 -166 7 -367 7 l-367
0 6 -50z"/>
<path d="M1159 7015 c0 -3 -1 -25 -1 -50 0 -25 1 -65 1 -90 l1 -45 63 0 64 0
1 95 1 95 -65 0 c-35 0 -64 -2 -65 -5z"/>
<path d="M2850 6955 l0 -65 30 0 c30 0 32 3 32 40 0 88 0 90 -32 90 l-30 0 0
-65z"/>
<path d="M2926 6993 c1 -16 2 -44 3 -64 l1 -37 73 3 c39 2 91 4 113 4 41 1 42
2 45 39 8 84 12 82 -120 82 l-118 0 3 -27z"/>
<path d="M3176 6968 c1 -29 2 -56 3 -60 1 -3 45 -5 99 -3 53 2 179 5 280 6
l182 2 -57 54 -58 53 -225 0 -225 0 1 -52z"/>
<path d="M3685 7010 c2 -3 23 -20 47 -36 24 -16 49 -37 57 -47 9 -12 17 -15
23 -9 17 17 -21 61 -64 73 -22 5 -38 12 -36 14 2 3 21 0 41 -6 25 -7 45 -21
60 -44 24 -39 28 -40 102 -36 24 1 25 4 23 49 l-3 47 -127 1 c-70 1 -126 -2
-123 -6z"/>
<path d="M3951 6938 c0 -46 -2 -96 -5 -113 -2 -16 -2 -42 1 -57 6 -28 76 -108
96 -108 32 1 35 16 33 185 l-1 170 -62 3 -62 3 0 -83z"/>
<path d="M4550 6970 c0 -27 3 -50 6 -50 13 0 89 23 96 29 3 3 9 21 11 39 l5
32 -59 0 -59 0 0 -50z"/>
<path d="M4678 6990 c-3 -18 0 -30 6 -30 6 0 52 14 101 30 l90 29 -96 1 -97 0
-4 -30z"/>
<path d="M4800 6981 l-115 -37 -3 -82 -3 -83 33 14 c18 8 72 34 121 57 75 37
87 46 88 69 2 36 0 94 -3 96 -2 1 -55 -14 -118 -34z"/>
<path d="M4937 7013 c-3 -5 -3 -22 0 -39 5 -30 5 -30 56 -26 32 2 79 17 122
37 l70 34 -122 1 c-67 0 -124 -3 -126 -7z"/>
<path d="M5228 6998 c-21 -12 -38 -27 -38 -33 0 -12 23 -12 225 -6 16 1 20 7
19 29 l-1 27 -84 2 c-69 1 -91 -2 -121 -19z"/>
<path d="M5447 7008 c-2 -7 -2 -21 1 -31 4 -16 16 -18 115 -15 l110 3 4 28 4
27 -115 0 c-83 0 -116 -3 -119 -12z"/>
<path d="M5718 7015 c-3 -3 -3 -15 -1 -28 4 -18 10 -22 41 -20 20 1 72 2 115
2 75 1 77 2 77 26 l0 25 -113 0 c-63 0 -116 -2 -119 -5z"/>
<path d="M5960 7008 c1 -31 16 -36 115 -33 55 2 106 3 113 4 6 1 12 10 12 21
0 19 -7 20 -120 20 -89 0 -120 -3 -120 -12z"/>
<path d="M6218 7013 c-15 -30 -2 -36 72 -33 41 1 95 3 120 4 33 1 45 5 45 16
0 12 -21 16 -117 18 -64 2 -118 0 -120 -5z"/>
<path d="M6476 7004 c-7 -19 -2 -20 86 -17 46 1 92 2 102 3 38 0 10 8 -56 15
-113 12 -127 12 -132 -1z"/>
<path d="M6587 6973 c-1 -1 -76 -3 -167 -4 -91 -2 -174 -5 -185 -7 -18 -3 -20
-11 -19 -70 1 -37 3 -115 4 -174 2 -83 6 -108 17 -112 21 -9 23 -8 23 11 0 12
3 14 11 6 16 -16 94 11 346 124 l101 46 -1 88 c-1 49 -4 89 -7 90 -9 2 -122 4
-123 2z"/>
<path d="M6730 6895 c0 -45 3 -84 6 -88 4 -3 19 0 33 8 26 13 27 16 24 86 -1
39 1 69 4 65 4 -4 8 -31 8 -61 1 -30 4 -57 7 -61 3 -3 40 9 82 26 64 27 76 36
76 55 0 14 -7 26 -17 28 -59 16 -85 20 -150 22 l-73 2 0 -82z"/>
<path d="M5155 6960 c-3 -5 -2 -10 4 -10 5 0 13 5 16 10 3 6 2 10 -4 10 -5 0
-13 -4 -16 -10z"/>
<path d="M6189 6966 c-2 -2 -101 -7 -219 -10 -118 -2 -223 -5 -232 -5 -16 -1
-17 -15 -14 -183 3 -101 5 -231 5 -289 l1 -107 63 25 c34 14 94 39 132 57 39
18 118 52 177 77 l106 44 -3 193 c-3 180 -5 209 -16 198z"/>
<path d="M5265 6940 l-70 -5 2 -160 c1 -88 2 -200 2 -248 l1 -88 122 3 123 3
-4 155 c-2 85 -4 194 -5 242 -1 48 -5 90 -9 94 -9 9 -70 11 -162 4z"/>
<path d="M5458 6939 c-10 -6 -5 -470 5 -486 5 -7 54 -8 215 -3 12 0 13 38 9
213 -3 116 -6 229 -6 250 l-1 38 -106 -3 c-58 -2 -110 -6 -116 -9z"/>
<path d="M6985 6941 c-2 -4 0 -13 5 -20 6 -11 12 -11 29 1 l22 16 -26 4 c-14
3 -27 2 -30 -1z"/>
<path d="M5021 6899 l-81 -39 4 -157 c2 -87 5 -183 5 -214 l1 -57 110 3 c60 2
114 6 118 9 9 5 5 477 -4 486 -16 16 -81 3 -153 -31z"/>
<path d="M4590 6912 l-35 -17 0 -87 c0 -49 2 -88 5 -87 3 0 27 11 55 24 l50
23 0 81 c1 75 0 81 -19 81 -12 0 -37 -8 -56 -18z"/>
<path d="M4936 6915 c5 -12 10 -12 27 -3 33 16 33 18 -1 18 -24 0 -30 -4 -26
-15z"/>
<path d="M7028 6903 c-34 -14 -38 -19 -38 -53 l0 -38 95 41 c102 43 106 53 23
62 -26 2 -57 -2 -80 -12z"/>
<path d="M3857 6870 c4 -19 8 -74 8 -121 l-1 -86 46 2 c25 2 56 3 69 4 23 1
22 2 -14 42 -37 41 -37 42 -33 117 l3 76 -43 1 -43 0 8 -35z"/>
<path d="M3257 6892 l-77 -3 2 -119 c2 -71 7 -120 13 -121 22 -2 169 2 172 5
3 3 6 89 4 172 -1 72 1 70 -114 66z"/>
<path d="M3387 6880 c-2 -11 -1 -189 2 -221 1 -10 371 -4 372 6 1 10 -2 124
-5 195 l-1 35 -182 0 c-154 0 -183 -2 -186 -15z"/>
<path d="M3798 6895 c-3 -3 -4 -32 -1 -63 2 -31 5 -82 6 -112 2 -48 5 -55 23
-58 18 -3 22 4 27 35 16 93 -2 203 -33 203 -9 0 -19 -2 -22 -5z"/>
<path d="M2996 6882 l-60 -3 65 -61 c35 -33 88 -83 117 -112 l53 -51 -3 113
c-2 65 -7 113 -13 113 -23 4 -104 4 -159 1z"/>
<path d="M2860 6870 c-7 -4 -10 -45 -8 -121 l3 -114 30 0 30 0 0 120 c0 116
-1 120 -22 121 -12 1 -26 -2 -33 -6z"/>
<path d="M7115 6825 c-90 -40 -120 -58 -120 -72 0 -16 10 -18 95 -18 154 0
145 -5 147 76 1 38 1 69 0 68 -1 0 -56 -25 -122 -54z"/>
<path d="M6905 6850 c-22 -11 -70 -32 -106 -48 -61 -28 -66 -32 -66 -61 0 -17
4 -31 7 -31 8 0 66 23 115 45 17 7 49 21 73 30 23 10 42 22 43 29 0 6 2 21 5
34 5 28 -15 28 -71 2z"/>
<path d="M7251 6805 l-2 -66 83 2 c73 1 88 5 112 26 16 13 26 26 24 28 -8 8
-188 75 -201 75 -10 0 -14 -17 -16 -65z"/>
<path d="M2932 6750 l3 -113 80 3 c44 2 92 3 108 3 15 -1 27 3 27 7 0 6 -165
169 -204 200 -17 13 -18 9 -14 -100z"/>
<path d="M4799 6792 l-116 -55 3 -136 c1 -75 3 -144 3 -153 1 -16 14 -18 121
-18 89 0 120 3 121 13 1 6 1 32 1 57 0 25 -2 111 -3 193 -1 81 -5 149 -8 151
-3 2 -58 -22 -122 -52z"/>
<path d="M1098 6814 c-2 -1 -93 -5 -203 -9 -110 -4 -236 -9 -280 -10 -44 -2
-92 -4 -108 -4 l-27 -1 16 -37 c38 -89 44 -134 47 -334 2 -152 6 -163 96 -258
23 -24 47 -54 54 -66 l12 -23 95 30 c341 107 350 110 419 165 2 1 -4 21 -14
44 -19 41 -19 42 4 130 l23 88 -38 63 c-35 56 -39 72 -42 140 -4 71 -6 76 -28
81 -13 2 -25 3 -26 1z"/>
<path d="M1165 6810 c-2 -3 -1 -39 1 -80 4 -63 11 -83 43 -137 l38 -64 -24
-89 -23 -90 20 -40 c17 -34 23 -38 43 -31 22 8 22 9 24 270 2 261 2 261 -20
266 -28 6 -97 2 -102 -5z"/>
<path d="M243 6783 c-5 -1 -46 -4 -93 -5 l-85 -3 0 -115 0 -115 170 4 c149 3
190 5 254 10 21 2 7 96 -25 169 l-25 59 -95 -1 c-51 -1 -97 -2 -101 -3z"/>
<path d="M7468 6769 c-24 -14 -23 -28 2 -26 12 1 20 8 20 19 0 21 0 21 -22 7z"/>
<path d="M7500 6772 c0 -15 16 -27 38 -28 32 -2 27 12 -8 25 -16 5 -30 7 -30
3z"/>
<path d="M6470 6662 c-124 -53 -230 -100 -236 -104 -12 -8 -13 -64 -1 -62 18
4 83 31 312 128 166 71 170 73 173 104 2 22 -1 32 -10 31 -7 0 -114 -44 -238
-97z"/>
<path d="M6845 6710 l-110 -49 2 -81 c0 -44 3 -87 6 -94 4 -10 31 -12 114 -9
59 2 113 5 120 8 7 2 10 14 8 27 -3 12 -5 73 -6 135 -1 75 -6 113 -13 112 -6
0 -60 -23 -121 -49z"/>
<path d="M7103 6723 l-113 -4 4 -97 c2 -53 4 -107 5 -119 1 -21 6 -23 51 -23
44 0 56 5 107 47 85 69 83 65 79 129 -4 74 -4 74 -13 72 -5 -1 -59 -4 -120 -5z"/>
<path d="M7253 6714 c-2 -6 -3 -32 -1 -58 l3 -46 67 53 c37 28 67 55 68 59 0
12 -132 4 -137 -8z"/>
<path d="M7409 6718 c-8 -7 -46 -39 -86 -71 l-72 -58 3 -52 2 -52 94 2 c52 1
99 2 104 2 4 1 5 8 2 17 -3 8 4 38 16 66 12 29 21 71 22 102 l0 51 -36 3 c-20
2 -42 -3 -49 -10z"/>
<path d="M7508 6715 c-1 -10 -2 -64 0 -121 l3 -105 117 3 117 3 3 80 3 80 -58
34 c-44 26 -73 35 -120 39 -52 4 -62 2 -65 -13z"/>
<path d="M4603 6699 c-40 -18 -49 -34 -44 -71 0 -3 1 -49 2 -102 l1 -96 32 -1
c17 0 41 -2 54 -3 23 -3 24 3 24 84 0 163 -3 210 -14 209 -7 0 -32 -9 -55 -20z"/>
<path d="M3928 6653 c-64 -4 -68 -5 -68 -27 l0 -24 63 20 c34 10 66 23 72 29
5 5 7 8 5 7 -3 -1 -35 -3 -72 -5z"/>
<path d="M3526 6643 c-1 -1 -32 -3 -69 -4 -41 -1 -67 -6 -68 -13 -2 -31 3
-161 6 -165 4 -3 355 106 363 113 2 3 5 18 6 35 2 29 0 31 -33 32 -76 3 -203
4 -205 2z"/>
<path d="M3807 6643 c-10 -10 -8 -53 2 -53 25 0 41 14 41 36 0 17 -6 24 -18
24 -10 0 -22 -3 -25 -7z"/>
<path d="M3946 6616 c-62 -21 -91 -37 -97 -51 -6 -17 -8 -17 -8 -2 -1 18 -9
21 -27 9 -15 -9 -27 -105 -13 -96 6 3 17 20 25 38 7 17 13 24 14 15 0 -9 -22
-47 -50 -85 -27 -38 -50 -73 -50 -79 0 -6 -13 -27 -30 -45 -16 -18 -30 -42
-30 -52 0 -15 8 -18 48 -17 26 0 40 3 32 6 -34 13 -65 53 -40 53 6 0 9 -5 8
-12 -2 -6 10 -18 25 -26 24 -12 32 -11 65 5 20 10 47 34 59 53 13 19 48 60 78
91 30 31 55 64 55 73 0 9 5 16 10 16 19 0 -19 -58 -70 -106 -27 -26 -50 -52
-50 -57 0 -6 8 -3 18 6 19 17 54 25 118 26 l41 1 1 90 c0 78 -3 92 -18 100
-35 19 -47 12 -44 -22 l3 -33 -8 30 c-10 41 -4 48 36 42 33 -6 34 -5 31 29 -3
42 -11 42 -132 0z"/>
<path d="M6490 6560 c-113 -48 -218 -94 -234 -102 l-30 -14 3 -140 c1 -76 3
-186 4 -244 l2 -105 115 0 115 -1 50 40 c28 22 87 71 133 109 l83 70 -5 216
c-3 119 -5 226 -5 239 -1 12 -7 22 -13 21 -7 -1 -105 -40 -218 -89z"/>
<path d="M7764 6572 l2 -77 102 0 c56 0 102 3 102 7 0 7 -98 78 -166 121 l-42
26 2 -77z"/>
<path d="M3223 6632 c-20 -3 -12 -14 58 -80 45 -42 84 -78 88 -80 6 -2 7 77 2
149 -1 12 -14 15 -63 15 -35 -1 -73 -2 -85 -4z"/>
<path d="M2955 6622 c-22 -3 -21 10 -15 -185 2 -42 0 -81 -4 -85 -4 -4 -24 -7
-44 -7 -33 0 -37 -3 -40 -28 -3 -24 0 -28 15 -24 66 19 263 80 285 89 l27 10
-4 106 c-2 59 -4 113 -4 120 -1 10 -24 12 -98 10 -54 -2 -107 -4 -118 -6z"/>
<path d="M2850 6490 l0 -130 39 0 39 0 -3 123 c-2 67 -4 125 -4 130 -1 4 -17
7 -36 7 l-35 0 0 -130z"/>
<path d="M3188 6513 c2 -60 6 -110 8 -112 3 -3 42 7 88 22 l83 27 -75 73 c-87
82 -103 97 -105 97 -1 0 0 -48 1 -107z"/>
<path d="M7181 6529 c-28 -22 -51 -42 -51 -45 0 -2 25 -3 55 -2 l55 2 0 43 c0
24 -2 43 -4 43 -2 0 -26 -18 -55 -41z"/>
<path d="M7476 6554 c-11 -29 -6 -64 8 -64 11 0 14 11 13 40 -2 41 -10 52 -21
24z"/>
<path d="M489 6546 c-2 -2 -96 -7 -209 -11 -113 -4 -208 -9 -212 -11 -3 -2 -6
-110 -6 -240 l0 -235 227 6 c124 4 258 8 296 9 84 2 84 6 11 90 -86 98 -91
112 -93 259 -1 121 -4 143 -14 133z"/>
<path d="M3560 6495 l-165 -53 -3 -86 c-1 -47 1 -86 5 -87 39 -5 81 -8 153
-11 78 -3 85 -1 88 17 3 11 29 56 58 101 40 59 56 93 60 127 5 41 4 47 -12 46
-11 0 -93 -24 -184 -54z"/>
<path d="M5963 6448 c-226 -98 -232 -101 -231 -129 1 -16 5 -29 10 -29 8 0
224 88 421 172 43 19 47 23 47 54 0 19 -3 33 -7 33 -5 -1 -112 -46 -240 -101z"/>
<path d="M7850 6480 l-85 -5 3 -42 c1 -26 -2 -43 -9 -43 -6 0 -10 12 -9 28 5
66 25 61 -242 56 -133 -2 -244 -6 -246 -9 -5 -5 -4 -169 2 -395 l2 -95 244 1
245 1 -1 202 c-1 110 2 201 6 201 5 0 9 -55 10 -122 1 -68 2 -158 3 -201 l2
-77 123 1 123 2 -7 181 c-3 99 -7 211 -8 249 -1 60 -3 67 -21 68 -11 0 -27 1
-35 2 -8 1 -53 0 -100 -3z"/>
<path d="M6798 6462 l-57 -3 2 -135 c1 -73 5 -133 9 -132 3 2 52 41 109 88 56
47 106 88 112 92 12 8 17 87 5 89 -20 3 -128 4 -180 1z"/>
<path d="M7003 6454 c-2 -7 -3 -22 -1 -33 3 -19 6 -18 42 12 l38 33 -37 0
c-20 0 -39 -6 -42 -12z"/>
<path d="M7052 6422 l-53 -47 3 -202 c3 -172 5 -203 18 -204 18 -1 163 -1 203
0 l27 1 -4 233 c-3 127 -5 239 -5 248 -1 14 -13 17 -69 17 -66 0 -68 -1 -120
-46z"/>
<path d="M8018 6453 c-6 -12 -2 -85 5 -113 4 -14 8 -99 9 -190 l3 -165 80 1
c44 1 97 2 118 3 l37 1 0 116 0 117 -107 109 c-107 109 -139 135 -145 121z"/>
<path d="M5536 6433 c-1 -1 -76 -4 -166 -5 l-165 -3 0 -129 c0 -70 2 -132 5
-137 4 -5 42 8 86 29 43 21 150 67 237 102 l157 64 0 40 0 41 -76 0 c-41 0
-77 -1 -78 -2z"/>
<path d="M5975 6342 c-126 -52 -232 -97 -234 -98 -3 -3 -2 -134 2 -249 l2 -50
160 2 c88 1 195 2 238 3 l77 0 -4 241 c-2 132 -6 242 -8 244 -1 2 -106 -40
-233 -93z"/>
<path d="M3263 6403 l-72 -24 3 -46 c3 -55 10 -59 113 -62 l72 -2 -2 80 c-2
94 1 93 -114 54z"/>
<path d="M5107 6424 c-1 -1 -125 -5 -275 -7 -151 -3 -276 -7 -278 -10 -4 -4
-7 -359 -5 -500 l1 -27 38 16 c20 9 71 29 112 46 41 16 98 39 125 50 28 12 64
26 80 33 17 7 87 37 158 66 l127 54 -2 139 -3 140 -38 1 c-21 0 -39 0 -40 -1z"/>
<path d="M3050 6336 c-118 -37 -116 -41 33 -52 l97 -6 0 46 c0 31 -4 46 -12
45 -7 0 -60 -15 -118 -33z"/>
<path d="M6888 6285 c-48 -40 -99 -82 -114 -94 -20 -16 -26 -29 -26 -58 0 -21
1 -68 1 -105 l1 -67 120 2 c131 2 124 -2 122 62 0 11 -1 89 -3 173 -1 84 -5
154 -8 156 -3 2 -45 -29 -93 -69z"/>
<path d="M4048 6345 c-1 -1 -25 -5 -52 -8 -42 -6 -56 -14 -111 -67 l-63 -60
-70 0 c-47 0 -71 -4 -74 -12 -4 -11 -3 -193 1 -291 l1 -28 166 5 c91 2 169 7
172 11 4 3 7 50 7 103 1 97 14 142 42 142 18 0 16 197 -2 204 -7 2 -15 3 -17
1z"/>
<path d="M5670 6323 c-63 -22 -228 -92 -285 -122 -38 -20 -94 -45 -124 -56
-47 -17 -55 -24 -56 -47 0 -16 4 -28 10 -28 5 0 116 44 245 98 l235 98 1 32
c1 33 0 34 -26 25z"/>
<path d="M2882 6245 c-31 -14 -32 -16 -31 -66 2 -52 7 -59 49 -61 62 -3 62 -3
58 70 -3 76 -14 84 -76 57z"/>
<path d="M3785 6250 c-3 -6 1 -7 9 -4 18 7 21 14 7 14 -6 0 -13 -4 -16 -10z"/>
<path d="M2976 6098 c3 -85 7 -172 7 -194 l2 -39 110 -1 c61 0 113 1 117 3 4
2 2 14 -6 26 -10 15 -16 70 -19 180 -3 88 -7 161 -10 163 -2 2 -49 7 -105 10
l-101 7 5 -155z"/>
<path d="M1254 6204 c6 -43 -20 -134 -42 -152 -9 -7 -16 -25 -15 -45 1 -17 2
-69 3 -115 2 -45 6 -85 11 -88 4 -2 24 2 42 10 l35 14 0 206 c0 196 -1 206
-19 206 -16 0 -18 -6 -15 -36z"/>
<path d="M3204 6234 c-7 -3 -10 -23 -8 -52 2 -26 6 -96 7 -157 4 -126 15 -155
60 -155 28 0 76 38 262 212 27 25 65 59 83 75 36 32 36 61 -1 60 -21 -1 -231
10 -342 18 -27 2 -55 1 -61 -1z"/>
<path d="M1210 6215 c-8 -9 -30 -25 -49 -34 -37 -19 -418 -141 -439 -141 -10
0 -12 -32 -10 -127 l3 -126 85 2 c47 1 150 4 230 6 80 2 149 4 153 4 5 1 6 60
3 131 -5 108 -3 130 8 130 17 0 51 93 48 130 -3 33 -16 44 -32 25z"/>
<path d="M5455 6125 c-126 -53 -232 -99 -236 -103 -8 -8 -12 -35 -10 -68 1
-21 3 -21 239 -17 130 2 242 5 248 7 7 3 10 24 8 53 -2 26 -3 87 -3 136 -1 48
-4 87 -8 87 -5 0 -111 -43 -238 -95z"/>
<path d="M8283 6096 c2 -119 -2 -114 90 -106 l58 5 -29 45 c-16 25 -50 71 -75
103 l-45 58 1 -105z"/>
<path d="M3555 6092 c-33 -31 -100 -94 -150 -139 l-90 -83 162 3 163 2 -3 137
c-1 84 -6 138 -12 138 -5 0 -37 -26 -70 -58z"/>
<path d="M6615 6058 c-61 -50 -111 -94 -113 -97 -2 -7 205 -4 224 3 9 4 12
172 2 181 -2 2 -53 -37 -113 -87z"/>
<path d="M4045 6098 c-2 -13 -6 -65 -7 -116 -3 -88 -2 -92 18 -92 20 0 21 5
22 115 1 93 -2 115 -13 115 -8 0 -17 -10 -20 -22z"/>
<path d="M4930 6009 c-140 -61 -283 -122 -317 -136 -46 -19 -62 -31 -66 -49
-8 -42 -45 -54 376 121 159 66 267 116 270 125 2 8 1 23 -2 33 -5 14 -40 2
-261 -94z"/>
<path d="M2864 6098 c-3 -4 4 -25 16 -47 11 -22 20 -47 20 -54 0 -8 7 -39 16
-68 9 -30 18 -60 20 -66 2 -7 10 -10 19 -7 14 6 15 23 11 123 -2 64 -5 118 -5
121 -1 8 -92 6 -97 -2z"/>
<path d="M2852 5958 l3 -101 28 -2 c16 0 30 2 32 5 2 4 -3 33 -12 66 -8 32
-16 64 -18 69 -5 22 -25 65 -30 65 -3 0 -4 -46 -3 -102z"/>
<path d="M486 6023 c-2 -2 -272 -11 -367 -12 l-57 -1 0 -119 -1 -118 167 4
c92 2 227 5 300 7 73 2 135 6 139 10 8 8 6 217 -3 225 -5 5 -173 9 -178 4z"/>
<path d="M4945 5914 c-126 -52 -243 -101 -260 -109 -16 -7 -50 -21 -75 -31
-25 -9 -49 -20 -53 -24 -7 -6 -11 -184 -8 -318 l1 -33 73 2 c39 1 88 8 107 15
19 8 82 23 140 35 58 11 112 22 120 24 8 2 51 11 95 20 126 25 123 23 119 97
-2 35 -4 143 -6 240 -2 111 -7 178 -13 177 -5 0 -113 -43 -240 -95z"/>
<path d="M8145 5970 l-110 -5 2 -85 c0 -47 1 -100 2 -117 l1 -33 111 4 c61 2
114 7 117 11 11 11 8 224 -3 227 -5 2 -59 1 -120 -2z"/>
<path d="M8311 5970 c-25 -6 -25 -6 -22 -115 1 -60 3 -111 5 -112 4 -4 58 -5
163 -3 102 2 102 2 93 25 -18 46 -100 205 -108 206 -34 5 -112 4 -131 -1z"/>
<path d="M7611 5960 l-84 -5 1 -65 c0 -36 1 -88 1 -117 l1 -51 113 3 c61 2
115 4 118 4 7 1 3 220 -4 227 -8 9 -52 10 -146 4z"/>
<path d="M7783 5963 c-8 -3 -5 -224 2 -231 9 -9 230 0 235 9 4 5 6 31 4 57 -1
26 -3 75 -3 110 l-1 62 -115 -2 c-63 -2 -118 -4 -122 -5z"/>
<path d="M7053 5952 l-43 -3 0 -99 c0 -93 1 -100 25 -118 22 -18 37 -20 115
-17 50 2 94 6 98 9 7 4 8 109 3 216 -1 12 -16 15 -78 15 -43 0 -97 -1 -120 -3z"/>
<path d="M7269 5948 c0 -4 -1 -28 -1 -53 0 -25 1 -74 1 -110 l1 -66 123 3 122
3 -2 85 c-1 47 -2 99 -2 117 l-1 32 -120 -2 c-66 0 -120 -5 -121 -9z"/>
<path d="M6505 5942 c-39 -5 -52 -17 -19 -20 32 -2 217 -40 239 -48 13 -5 15
0 12 32 l-4 39 -99 0 c-54 0 -112 -1 -129 -3z"/>
<path d="M6768 5943 c-12 -3 -17 -15 -16 -43 0 -33 4 -39 27 -45 14 -3 68 -26
120 -51 51 -24 95 -44 96 -44 3 0 -1 160 -4 183 -1 7 -194 8 -223 0z"/>
<path d="M6378 5933 c6 -2 18 -2 25 0 6 3 1 5 -13 5 -14 0 -19 -2 -12 -5z"/>
<path d="M5307 5922 l-98 -3 5 -157 c2 -86 5 -175 5 -198 l1 -41 133 29 c72
16 148 31 167 34 19 3 60 11 90 19 30 7 66 15 80 19 24 5 25 9 23 63 -2 32 -4
99 -5 148 l-3 90 -150 0 c-82 0 -194 -1 -248 -3z"/>
<path d="M5749 5925 c-1 -3 -1 -14 -1 -25 0 -195 3 -261 13 -258 10 3 15 157
10 276 -1 11 -20 18 -22 7z"/>
<path d="M3965 5874 c-5 -2 -71 -4 -145 -6 l-135 -3 -3 -119 c-2 -65 0 -116 5
-115 23 11 313 222 313 229 0 10 -21 18 -35 14z"/>
<path d="M4017 5858 c-7 -11 -78 -66 -159 -124 -81 -57 -149 -108 -153 -113
-9 -15 34 -50 105 -86 108 -54 99 -56 188 32 l80 78 -2 115 c-1 113 -1 115
-24 116 -14 1 -29 -7 -35 -18z"/>
<path d="M3210 5853 c-8 -1 -62 -4 -120 -5 l-105 -3 1 -70 c1 -38 3 -130 5
-202 l3 -133 257 0 256 0 76 75 c72 70 76 76 66 102 -5 14 -9 69 -8 122 1 53
1 102 0 109 -1 11 -42 13 -209 10 -114 -2 -214 -4 -222 -5z"/>
<path d="M2873 5842 c-23 -3 -23 -5 -23 -163 0 -87 4 -159 8 -159 10 0 105 60
112 71 3 5 5 46 4 91 -2 46 -3 99 -3 119 -1 35 -3 37 -38 40 -21 2 -48 3 -60
1z"/>
<path d="M1129 5786 c-2 -2 -96 -7 -209 -9 -113 -3 -205 -6 -206 -6 0 -1 -1
-28 -2 -62 -1 -45 2 -60 12 -56 7 3 55 17 107 32 52 15 112 33 134 40 22 7 67
21 100 31 51 14 93 34 74 34 -3 0 -8 -2 -10 -4z"/>
<path d="M638 5775 c-3 -3 -341 -13 -494 -14 l-81 -1 1 -117 1 -118 115 2
c107 1 129 5 295 54 99 28 183 54 187 58 7 6 12 63 9 107 -1 19 -23 39 -33 29z"/>
<path d="M1070 5744 c-58 -19 -162 -50 -232 -70 l-128 -37 0 -98 0 -99 245 0
245 0 -5 148 c-2 81 -4 157 -4 170 -1 27 7 28 -121 -14z"/>
<path d="M1228 5773 c-10 -2 -18 -12 -19 -21 -1 -17 3 -260 5 -294 0 -14 9
-18 37 -18 l36 0 1 170 c1 169 0 170 -21 169 -12 -1 -30 -3 -39 -6z"/>
<path d="M8248 5725 c-2 -2 -49 -5 -106 -6 l-103 -3 3 -120 3 -121 115 0 115
0 1 122 c1 91 -2 123 -11 127 -7 2 -15 3 -17 1z"/>
<path d="M8292 5603 c3 -101 6 -123 18 -124 40 -3 305 3 311 7 11 6 0 114 -15
149 -8 16 -19 44 -26 62 l-12 32 -139 -2 -139 -2 2 -122z"/>
<path d="M7717 5714 c-1 -2 -44 -4 -95 -5 l-93 -2 2 -118 c2 -71 7 -120 14
-122 5 -2 35 -2 65 -1 30 0 79 2 108 3 l53 1 -2 119 c-2 116 -3 119 -25 124
-13 2 -25 3 -27 1z"/>
<path d="M7789 5709 c-5 -3 -8 -58 -7 -122 l3 -117 123 0 124 0 -4 123 -3 122
-113 0 c-63 0 -118 -3 -123 -6z"/>
<path d="M7154 5700 l-61 -5 84 -82 83 -81 -1 84 c-1 46 -4 84 -8 85 -3 0 -13
1 -21 2 -8 1 -42 0 -76 -3z"/>
<path d="M7272 5610 c1 -66 6 -103 17 -123 l15 -27 106 2 105 3 0 120 0 120
-122 0 -122 0 1 -95z"/>
<path d="M650 5620 c-8 -4 -51 -18 -95 -30 -44 -13 -115 -34 -159 -47 -96 -29
-116 -31 -236 -32 l-96 -1 -2 -35 -3 -35 306 0 305 0 0 95 c0 52 -1 95 -2 94
-2 0 -10 -4 -18 -9z"/>
<path d="M4038 5593 c-41 -34 -97 -95 -98 -106 0 -24 32 -12 74 28 27 25 52
45 57 45 4 0 7 14 7 30 -1 17 -2 30 -4 30 -1 0 -17 -12 -36 -27z"/>
<path d="M5756 5578 c4 -83 8 -117 12 -113 2 2 4 31 4 65 -1 88 -1 90 -10 90
-5 0 -8 -19 -6 -42z"/>
<path d="M5600 5589 c-36 -9 -85 -19 -108 -23 -24 -3 -46 -7 -50 -10 -4 -2
-24 -7 -45 -10 -22 -3 -69 -13 -107 -22 l-68 -15 2 -47 1 -47 160 4 c88 2 201
4 250 5 l90 2 -1 34 c-7 151 -6 150 -34 148 -14 -2 -54 -10 -90 -19z"/>
<path d="M3597 5510 l-69 -70 186 0 c102 0 186 2 186 5 0 3 -29 19 -64 35 -35
16 -87 45 -116 65 -28 19 -53 35 -54 35 0 0 -32 -32 -69 -70z"/>
<path d="M2915 5535 c-51 -29 -60 -39 -62 -65 l-3 -30 65 0 65 0 0 65 c0 36
-1 65 -2 65 -2 0 -30 -16 -63 -35z"/>
<path d="M4036 5484 c-32 -33 -32 -38 0 -53 35 -15 44 -7 44 40 0 46 -8 48
-44 13z"/>
<path d="M5149 5496 c-2 -2 -18 -6 -34 -9 -17 -2 -56 -10 -88 -17 -50 -12 -57
-16 -57 -37 l0 -25 118 4 117 3 3 43 c3 40 2 42 -26 42 -16 0 -31 -2 -33 -4z"/>
<path d="M8302 5455 c-6 -10 -3 -217 3 -224 6 -5 318 -1 324 5 6 6 2 193 -5
215 -4 15 -24 17 -160 15 -86 0 -158 -5 -162 -11z"/>
<path d="M7805 5452 c-19 -3 -20 -9 -18 -110 2 -59 5 -112 7 -118 4 -10 225
-8 235 2 6 6 1 217 -5 224 -6 5 -184 7 -219 2z"/>
<path d="M8048 5454 c-3 -3 -3 -42 2 -221 0 -9 32 -11 118 -9 l117 2 0 105 c0
57 -1 110 -4 117 -2 9 -32 12 -117 11 -62 0 -114 -3 -116 -5z"/>
<path d="M4843 5432 c-40 -9 -73 -19 -73 -22 0 -8 166 -4 179 5 15 9 1 35 -18
34 -9 -1 -49 -9 -88 -17z"/>
<path d="M7320 5444 c0 0 18 -36 40 -80 23 -43 46 -96 52 -116 11 -37 12 -38
62 -38 l51 0 -2 88 c-1 48 -2 102 -2 120 l-1 33 -100 -3 c-55 -2 -100 -3 -100
-4z"/>
<path d="M7538 5438 c-3 -11 -3 -122 1 -205 1 -22 3 -22 119 -20 l117 3 -2
100 c-1 54 -2 107 -2 117 -1 15 -13 17 -115 17 -82 0 -115 -3 -118 -12z"/>
<path d="M5260 5400 l-35 -5 4 -175 c2 -96 4 -208 5 -248 l1 -73 238 5 c131 2
240 6 242 8 12 12 28 441 18 479 -5 19 -14 20 -222 17 -119 -2 -232 -5 -251
-8z"/>
<path d="M8670 5321 c0 -79 2 -89 18 -87 9 2 17 9 16 17 -1 27 -26 159 -30
159 -2 0 -4 -40 -4 -89z"/>
<path d="M4777 5392 l-68 -3 7 -217 c3 -119 7 -232 7 -250 l0 -33 121 3 121 3
-4 195 c-1 107 -4 219 -5 249 l-1 54 -55 1 c-30 0 -86 0 -123 -2z"/>
<path d="M4974 5388 c-4 -6 2 -266 9 -453 l2 -40 100 0 c153 0 137 -24 131
204 -2 108 -5 220 -5 248 l-1 52 -116 -2 c-64 -1 -118 -5 -120 -9z"/>
<path d="M4550 5343 c-1 -56 -1 -406 0 -436 0 -24 1 -24 133 -18 l27 1 -6 227
c-4 125 -8 235 -9 243 -2 8 -4 18 -4 22 -1 5 -32 7 -71 5 l-70 -2 0 -42z"/>
<path d="M8323 5212 c-21 -3 -21 -7 -19 -125 l3 -122 139 2 c76 1 153 2 171 2
l31 1 -4 73 c-5 70 -11 156 -13 168 -1 6 -266 7 -308 1z"/>
<path d="M8677 5213 c-2 -5 -3 -26 -2 -48 1 -22 3 -69 5 -105 4 -80 7 -90 30
-90 19 0 32 22 25 43 -2 6 -6 44 -10 82 -3 39 -7 79 -10 90 -2 11 -4 23 -4 28
-1 4 -7 7 -15 7 -8 0 -17 -3 -19 -7z"/>
<path d="M7852 5202 l-62 -3 3 -122 3 -122 121 0 121 0 -3 120 c-1 66 -3 123
-4 126 -1 5 -73 6 -179 1z"/>
<path d="M8050 5084 l0 -124 115 0 c101 0 115 2 124 19 6 10 8 20 6 23 -2 2
-5 50 -6 106 l-1 102 -119 -1 -119 0 0 -125z"/>
<path d="M7436 5193 c-1 -2 5 -42 15 -90 10 -49 20 -104 24 -125 4 -27 10 -35
23 -33 9 2 20 4 24 4 10 1 7 212 -3 231 -6 13 -73 23 -83 13z"/>
<path d="M7543 5077 c2 -142 -7 -134 143 -129 l95 3 -3 125 -2 124 -118 -1
-118 -1 3 -121z"/>
<path d="M329 5145 c-1 -3 -2 -8 -3 -12 -4 -19 -68 -218 -71 -221 -1 -2 -54 8
-116 22 -63 14 -120 26 -128 26 -7 0 7 -21 32 -47 79 -84 127 -137 127 -143 0
-5 -48 -60 -122 -138 -22 -23 -38 -45 -35 -48 3 -3 58 6 123 20 64 15 118 25
119 24 2 -2 19 -56 40 -122 20 -65 40 -115 44 -110 4 5 23 60 41 122 19 61 38
112 43 112 5 0 43 -9 85 -19 43 -11 97 -22 121 -26 l43 -7 -30 33 c-17 19 -56
61 -86 94 -31 33 -56 62 -56 65 0 5 55 65 134 148 l41 44 -37 -6 c-20 -3 -78
-15 -129 -26 -50 -11 -93 -19 -94 -18 -1 2 -19 56 -39 121 -33 104 -43 129
-47 112z"/>
<path d="M1478 5145 c-3 -6 -20 -57 -38 -115 -17 -58 -35 -108 -39 -113 -4 -4
-58 4 -120 18 -63 14 -117 25 -122 23 -4 -2 30 -43 76 -93 46 -49 84 -92 84
-95 0 -3 -37 -45 -83 -95 -47 -49 -80 -91 -75 -93 7 -3 78 11 174 35 67 16 67
16 105 -104 38 -120 45 -135 53 -106 59 200 69 225 91 219 91 -23 218 -47 222
-43 3 3 -3 14 -13 24 -88 93 -143 154 -143 160 0 10 33 49 107 126 30 32 53
61 50 64 -3 2 -59 -7 -124 -22 -93 -21 -119 -23 -122 -13 -3 7 -21 62 -41 123
-20 60 -39 105 -42 100z"/>
<path d="M2591 5041 c-18 -60 -36 -114 -40 -120 -6 -9 -36 -6 -121 14 -62 14
-116 25 -121 23 -5 -2 8 -21 28 -44 21 -23 59 -65 86 -93 l47 -53 -52 -56
c-60 -62 -74 -78 -103 -111 l-20 -23 40 6 c22 4 78 16 124 27 64 16 86 17 92
8 4 -7 22 -61 40 -120 18 -60 35 -109 39 -109 3 0 22 53 42 118 38 125 36 122
101 109 15 -3 62 -13 103 -23 41 -9 77 -14 79 -12 4 3 -10 20 -118 136 l-48
52 53 57 c29 32 68 73 86 91 17 19 32 36 32 38 0 6 -53 -3 -159 -28 -45 -10
-86 -17 -89 -13 -3 3 -21 54 -39 113 -19 59 -37 110 -41 114 -4 4 -22 -41 -41
-101z"/>
<path d="M3735 5030 c-21 -66 -42 -120 -48 -120 -5 0 -26 4 -46 10 -73 19
-168 40 -184 40 -11 0 2 -20 42 -62 32 -35 71 -78 88 -97 l29 -34 -25 -27
c-80 -82 -141 -155 -133 -158 5 -1 60 9 122 23 62 14 115 24 116 22 2 -2 17
-46 33 -98 16 -52 34 -105 39 -119 12 -29 9 -35 55 110 39 123 19 115 203 74
41 -9 77 -15 79 -12 2 2 -15 24 -39 48 -23 25 -61 66 -85 92 l-43 48 87 95
c48 52 82 95 76 95 -7 0 -62 -11 -123 -25 -62 -14 -115 -22 -119 -18 -4 5 -22
55 -40 113 -17 58 -35 108 -39 113 -3 4 -24 -47 -45 -113z"/>
<path d="M5760 4990 c0 -46 3 -80 7 -77 7 7 5 149 -3 156 -2 2 -4 -33 -4 -79z"/>
<path d="M8398 4952 l-88 -3 0 -120 0 -120 203 5 c111 3 207 5 213 6 6 0 11
15 12 34 1 26 -7 44 -34 73 -19 21 -40 57 -46 81 -7 23 -17 43 -23 43 -27 3
-159 4 -237 1z"/>
<path d="M8690 4938 c0 -26 25 -68 41 -68 6 0 9 19 7 43 -2 35 -7 43 -25 45
-18 3 -23 -1 -23 -20z"/>
<path d="M7995 4943 c-11 -1 -60 -4 -110 -5 l-90 -3 2 -70 c1 -38 2 -91 2
-118 l1 -47 120 2 120 3 1 33 c0 17 1 46 1 62 0 145 -2 149 -47 143z"/>
<path d="M8069 4942 c-12 -2 -15 -23 -14 -115 0 -62 4 -115 8 -118 8 -6 204
-1 223 5 10 4 12 104 5 218 -1 15 -13 17 -104 15 -56 -1 -110 -3 -118 -5z"/>
<path d="M7579 4932 l-35 -3 2 -107 c2 -59 3 -112 4 -117 0 -7 25 -10 63 -9
34 1 87 3 117 3 l56 1 -2 93 c-2 50 -3 104 -3 118 -1 25 -2 25 -83 25 -46 -1
-99 -2 -119 -4z"/>
<path d="M7482 4811 c0 -114 1 -118 22 -117 26 1 32 36 28 154 -3 79 -4 82
-27 82 -24 0 -24 0 -23 -119z"/>
<path d="M5616 4893 c-1 -1 -85 -3 -186 -5 l-185 -3 -3 -56 -3 -56 143 4 c79
2 186 5 238 6 l95 2 3 53 c2 37 -1 52 -10 53 -56 3 -90 4 -92 2z"/>
<path d="M5070 4880 l-85 -5 0 -52 c0 -40 4 -53 15 -54 79 -3 216 4 220 12 5
8 6 80 1 99 0 3 -16 5 -34 5 -17 0 -70 -2 -117 -5z"/>
<path d="M5760 4775 c0 -63 3 -115 8 -115 4 0 7 52 7 115 0 63 -3 115 -7 115
-5 0 -8 -52 -8 -115z"/>
<path d="M4618 4872 l-66 -3 -4 -50 c-1 -28 -1 -53 1 -55 2 -2 39 -4 82 -4 86
0 89 3 80 77 -4 38 -7 39 -93 35z"/>
<path d="M4732 4870 c-6 -4 -7 -40 -3 -97 1 -8 33 -11 114 -8 61 1 115 3 120
4 4 1 7 26 7 56 l0 54 -116 -2 c-64 -1 -119 -4 -122 -7z"/>
<path d="M5366 4763 c-2 -2 -218 -7 -698 -17 -60 -2 -110 -5 -113 -8 -5 -4 -8
-340 -6 -466 l1 -22 253 5 c138 2 400 7 582 10 181 4 332 8 335 10 3 2 4 77 3
167 -1 89 -2 200 -2 246 l-1 83 -176 -3 c-96 -2 -177 -4 -178 -5z"/>
<path d="M8607 4703 c-2 -1 -64 -3 -140 -4 -75 -2 -141 -5 -145 -8 -11 -8 -10
-224 1 -232 8 -6 330 -1 372 5 22 3 30 44 37 175 l3 64 -63 2 c-35 0 -64 0
-65 -2z"/>
<path d="M8092 4692 l-33 -3 2 -120 2 -119 113 0 c67 0 115 4 119 10 8 13 7
221 0 229 -6 5 -152 8 -203 3z"/>
<path d="M7583 4682 l-33 -3 0 -120 0 -119 121 1 120 2 -2 118 c-1 77 -6 119
-13 120 -26 3 -164 4 -193 1z"/>
<path d="M7802 4569 c3 -135 -4 -126 108 -123 41 2 90 3 108 3 l32 1 -3 118
-3 117 -122 1 -122 0 2 -117z"/>
<path d="M7476 4653 c-3 -15 -10 -55 -16 -88 -5 -33 -14 -75 -19 -93 -10 -34
-9 -34 54 -34 42 0 42 -2 41 120 l-1 117 -27 3 c-22 3 -27 -2 -32 -25z"/>
<path d="M5760 4595 c0 -32 3 -55 7 -51 7 7 5 98 -3 105 -2 2 -4 -22 -4 -54z"/>
<path d="M5760 4519 c0 -5 5 -7 10 -4 6 3 10 8 10 11 0 2 -4 4 -10 4 -5 0 -10
-5 -10 -11z"/>
<path d="M5763 4420 c0 -47 2 -66 4 -42 2 23 2 61 0 85 -2 23 -4 4 -4 -43z"/>
<path d="M8427 4442 l-108 -3 2 -142 c1 -78 4 -147 6 -153 4 -12 283 -8 294 4
22 26 89 244 89 291 0 8 -70 9 -283 3z"/>
<path d="M7876 4430 l-69 -5 2 -145 c1 -79 6 -147 11 -150 7 -4 198 -5 230 -1
6 1 1 294 -5 299 -6 6 -97 7 -169 2z"/>
<path d="M8067 4425 c-3 -8 -1 -195 2 -278 1 -16 12 -18 122 -16 l120 1 -3
152 -4 151 -117 0 c-70 0 -118 -4 -120 -10z"/>
<path d="M7431 4416 c-5 -6 -23 -45 -40 -87 -18 -42 -44 -96 -60 -120 -27 -43
-28 -48 -26 -169 l2 -125 104 2 c57 1 111 2 120 2 15 1 17 24 12 248 -2 136
-5 248 -6 249 -10 9 -99 9 -106 0z"/>
<path d="M7555 4275 l2 -150 119 0 119 0 -2 135 c-1 74 -2 142 -3 152 0 14
-14 16 -118 15 l-118 -2 1 -150z"/>
<path d="M5761 4314 c0 -11 3 -14 6 -6 3 7 2 16 -1 19 -3 4 -6 -2 -5 -13z"/>
<path d="M5760 4280 c0 -5 5 -10 11 -10 5 0 7 5 4 10 -3 6 -8 10 -11 10 -2 0
-4 -4 -4 -10z"/>
<path d="M5350 4250 l-96 -5 2 -170 c1 -93 3 -178 3 -187 2 -32 67 -23 110 14
39 34 213 193 301 275 84 79 82 81 -84 80 -78 -1 -184 -4 -236 -7z"/>
<path d="M4907 4243 c-2 -1 -82 -3 -180 -4 l-177 -3 -1 -26 c0 -26 0 -312 1
-342 0 -15 17 -16 193 -12 105 3 253 7 327 9 74 2 144 4 155 4 19 1 20 7 18
108 -1 60 -2 145 -2 190 l-1 81 -166 -1 c-91 -1 -166 -3 -167 -4z"/>
<path d="M5669 4157 c-99 -92 -253 -233 -283 -259 l-31 -28 170 4 c94 3 178 5
188 5 15 1 17 16 17 161 0 88 -3 160 -7 160 -5 0 -28 -19 -54 -43z"/>
<path d="M64 4129 c-2 -3 -3 -38 -2 -76 l1 -70 52 3 c40 2 74 15 146 54 52 28
109 58 127 67 17 9 32 19 32 22 0 8 -351 8 -356 0z"/>
<path d="M490 4068 c0 -64 1 -68 23 -69 20 -1 95 1 177 5 l35 1 0 63 c0 34 -2
63 -5 63 -3 1 -56 2 -117 3 l-113 2 0 -68z"/>
<path d="M772 4132 c-5 -1 -7 -46 -6 -100 1 -53 4 -161 5 -239 l3 -141 28 14
c43 22 98 74 143 135 l42 56 -4 134 c-3 74 -7 136 -9 139 -6 5 -186 8 -202 2z"/>
<path d="M996 4130 c-2 -3 -2 -39 0 -80 1 -41 2 -98 3 -127 l1 -52 93 58 c50
32 116 71 144 87 51 28 53 31 53 72 0 23 -3 43 -7 43 -26 4 -285 3 -287 -1z"/>
<path d="M2853 4127 c-5 -9 44 -77 56 -77 10 0 61 65 61 77 0 11 -110 11 -117
0z"/>
<path d="M2981 4115 c-10 -11 -28 -35 -41 -53 l-22 -33 24 -27 c14 -15 34 -37
45 -50 l20 -22 59 62 c62 65 104 120 104 135 0 4 -38 8 -85 8 -74 0 -89 -3
-104 -20z"/>
<path d="M3186 4090 c-17 -25 -60 -75 -94 -112 -71 -74 -70 -71 -9 -137 41
-45 39 -44 213 -41 91 2 96 3 127 22 19 13 204 230 258 303 5 7 -73 10 -229
10 l-236 0 -30 -45z"/>
<path d="M3730 4120 c-8 -9 -31 -36 -51 -60 -21 -25 -69 -84 -107 -131 -48
-58 -68 -89 -61 -96 9 -9 467 -8 494 1 11 4 9 285 -1 296 -3 2 -62 5 -131 5
-104 1 -130 -2 -143 -15z"/>
<path d="M4027 4132 c-3 -4 -3 -52 -2 -107 2 -55 4 -120 4 -145 1 -41 3 -45
25 -45 l25 0 -2 149 c-2 145 -3 149 -24 152 -12 2 -24 0 -26 -4z"/>
<path d="M336 4065 c-66 -36 -122 -68 -125 -71 -6 -6 236 -3 255 3 15 5 15
133 0 133 -6 0 -65 -30 -130 -65z"/>
<path d="M7205 4046 c-44 -46 -96 -94 -115 -109 l-35 -26 116 -1 c136 0 126
-10 119 126 l-5 92 -80 -82z"/>
<path d="M8390 4120 l-65 -5 2 -78 c1 -97 4 -105 40 -101 15 1 67 2 114 3 l87
1 17 70 c11 43 21 67 28 63 6 -4 7 -1 1 8 -5 8 -9 21 -9 29 0 16 -86 20 -215
10z"/>
<path d="M8623 4115 c-3 -9 -3 -18 -1 -21 3 -3 8 4 11 16 6 23 -1 27 -10 5z"/>
<path d="M7892 4112 l-82 -3 2 -89 c2 -50 8 -91 13 -93 6 -2 37 -2 70 -1 33 1
83 3 112 3 l52 1 -2 90 c-2 72 -5 90 -17 91 -8 0 -26 1 -40 2 -14 1 -62 1
-108 -1z"/>
<path d="M8075 4109 c-2 -3 -4 -44 -4 -92 l0 -87 119 3 c117 2 120 3 121 25 1
28 1 82 0 126 l-1 35 -116 -2 c-64 -1 -117 -5 -119 -8z"/>
<path d="M7564 4101 c-2 -2 -4 -44 -4 -93 l0 -88 118 3 117 2 1 92 1 91 -114
-1 c-63 -1 -117 -4 -119 -6z"/>
<path d="M2850 4003 l1 -38 19 23 c17 21 18 26 6 38 -22 21 -26 17 -26 -23z"/>
<path d="M2871 3969 c-12 -17 -21 -32 -19 -33 32 -23 101 -56 108 -51 17 11
10 29 -28 73 l-38 42 -23 -31z"/>
<path d="M496 3980 c-2 -3 -2 -61 0 -130 1 -69 3 -169 4 -222 1 -54 3 -98 5
-98 3 0 48 20 186 82 l46 20 -3 52 c-1 28 -3 108 -4 179 l-2 127 -115 -2 c-63
-2 -116 -5 -117 -8z"/>
<path d="M1211 3958 c-30 -16 -88 -53 -130 -82 -70 -47 -76 -54 -79 -88 -3
-44 -14 -40 139 -38 160 2 144 -12 147 123 2 90 0 117 -10 117 -7 -1 -37 -15
-67 -32z"/>
<path d="M119 3948 l-57 -27 0 -295 c0 -163 3 -298 7 -300 4 -3 54 18 111 46
58 28 151 72 206 98 l102 49 -4 163 c-1 90 -3 194 -3 231 l-1 68 -152 -3
c-142 -3 -156 -5 -209 -30z"/>
<path d="M62 3958 c6 -18 22 -20 43 -3 19 14 18 14 -13 15 -22 0 -32 -4 -30
-12z"/>
<path d="M8372 3922 l-42 -3 1 -115 c0 -63 4 -114 7 -115 4 -1 19 -2 34 -3 15
-2 33 -8 41 -14 10 -8 16 -6 27 11 18 29 120 230 120 238 0 6 -113 6 -188 1z"/>
<path d="M7871 3910 l-55 -5 1 -60 c1 -33 1 -85 2 -115 l1 -56 115 2 c64 1
119 5 123 8 7 8 4 218 -4 225 -6 6 -119 7 -183 1z"/>
<path d="M8076 3911 c-3 -5 -1 -87 3 -199 l1 -32 118 2 117 3 0 115 -1 115
-117 1 c-65 1 -119 -2 -121 -5z"/>
<path d="M7383 3902 l-73 -3 0 -113 c0 -82 3 -115 13 -118 9 -3 183 -2 220 1
4 1 6 54 5 118 l-3 116 -45 1 c-25 1 -78 0 -117 -2z"/>
<path d="M7566 3795 c1 -60 2 -114 3 -118 1 -4 54 -6 118 -5 l118 3 -2 95 c-1
52 -2 105 -2 118 -1 23 -1 23 -119 20 l-119 -3 3 -110z"/>
<path d="M7042 3892 c-12 -2 -48 -18 -80 -36 -31 -17 -77 -40 -102 -50 -25
-10 -50 -22 -55 -26 -9 -8 -12 -49 -6 -111 1 -16 -6 -16 406 -6 l90 2 0 100
c1 55 -1 107 -3 116 -3 14 -20 16 -115 15 -62 0 -122 -2 -135 -4z"/>
<path d="M2850 3840 c0 -27 4 -50 8 -50 11 0 67 59 61 64 -2 2 -19 11 -36 20
l-33 17 0 -51z"/>
<path d="M2980 3871 c0 -12 49 -51 63 -51 6 0 -2 14 -18 30 -29 30 -45 38 -45
21z"/>
<path d="M5626 3863 c-1 -1 -66 -3 -144 -5 l-141 -2 -41 -36 -41 -36 3 -84 3
-85 80 3 c212 9 345 9 345 1 0 -5 -48 -9 -107 -10 -94 0 -234 -4 -299 -8 -21
-1 -21 -5 -19 -113 2 -62 4 -116 4 -119 1 -4 63 -5 139 -3 75 1 181 3 235 3
l98 1 -5 228 c-3 125 -5 236 -6 247 0 17 -7 20 -51 20 -28 0 -52 -1 -53 -2z
m94 -243 c0 -5 -4 -10 -10 -10 -5 0 -10 5 -10 10 0 6 5 10 10 10 6 0 10 -4 10
-10z"/>
<path d="M5278 3853 c-10 -3 -18 -13 -18 -24 0 -24 6 -24 31 0 22 20 16 30
-13 24z"/>
<path d="M4783 3842 l-33 -3 4 -112 c3 -62 5 -114 5 -117 1 -6 258 -1 286 5
11 3 60 42 109 88 72 67 89 88 91 115 l3 33 -217 -3 c-119 -2 -231 -4 -248 -6z"/>
<path d="M4549 3809 c0 -16 0 -58 0 -94 0 -36 0 -76 0 -90 l1 -25 96 3 95 2
-3 115 -3 115 -92 2 -93 1 -1 -29z"/>
<path d="M2892 3787 l-42 -43 0 -97 c0 -53 2 -97 4 -97 2 0 37 22 78 48 40 27
91 56 113 64 22 9 48 27 58 41 16 21 17 27 6 46 -8 11 -22 21 -32 21 -23 0
-107 40 -107 51 0 22 -40 5 -78 -34z"/>
<path d="M3640 3810 c-122 -5 -116 -2 -111 -54 0 -8 9 -17 20 -21 30 -9 282
-178 321 -215 19 -18 63 -60 98 -94 l63 -61 -7 180 c-4 99 -7 200 -8 225 l-1
45 -130 0 c-71 0 -182 -2 -245 -5z"/>
<path d="M4036 3633 c10 -297 10 -303 33 -303 5 0 9 110 9 245 l0 245 -24 0
-25 0 7 -187z"/>
<path d="M3463 3803 c-18 -7 -16 -20 5 -27 9 -3 23 -9 30 -12 8 -4 12 3 12 20
0 26 -16 32 -47 19z"/>
<path d="M967 3765 c-17 -24 -17 -25 3 -25 15 0 20 6 20 25 0 30 -1 30 -23 0z"/>
<path d="M6684 3746 c-68 -20 -76 -26 -160 -115 -156 -166 -226 -236 -222
-224 3 10 31 41 162 181 l41 43 -100 -2 c-55 -1 -105 -3 -111 -6 -10 -4 -10
-193 1 -220 2 -7 16 -13 30 -13 14 0 25 -4 25 -10 0 -5 -13 -10 -30 -10 l-30
0 0 -104 c0 -117 4 -135 28 -130 9 2 117 5 239 7 122 2 225 6 229 10 10 10 4
221 -7 228 -6 3 -31 4 -57 3 -113 -9 -362 -10 -362 -2 0 4 53 8 118 9 100 1
162 3 288 8 21 1 21 5 18 139 -1 75 -3 158 -3 185 -1 54 2 53 -97 23z"/>
<path d="M3233 3753 c15 -2 37 -2 50 0 12 2 0 4 -28 4 -27 0 -38 -2 -22 -4z"/>
<path d="M3344 3734 c-31 -14 -67 -43 -89 -70 -21 -25 -54 -52 -75 -60 -30
-12 -42 -25 -55 -56 -15 -39 -15 -41 12 -87 17 -29 29 -66 33 -101 l5 -55 120
2 c66 1 146 2 177 2 l57 1 -5 133 c-7 156 -11 248 -13 263 -1 12 -82 54 -102
53 -8 0 -37 -12 -65 -25z"/>
<path d="M5155 3687 l-79 -74 79 3 c44 1 83 2 87 3 8 1 6 141 -2 141 -3 0 -41
-33 -85 -73z"/>
<path d="M3167 3730 c6 -22 8 -23 41 -14 24 7 30 21 10 21 -7 0 -23 3 -35 7
-18 6 -21 4 -16 -14z"/>
<path d="M1021 3728 c-16 -5 -17 -18 -16 -112 2 -59 5 -110 9 -113 3 -3 41 -5
83 -3 43 1 103 3 133 4 l55 2 3 117 3 117 -126 -3 c-69 -1 -134 -5 -144 -9z"/>
<path d="M902 3697 c-15 -16 -49 -44 -77 -62 -49 -32 -50 -33 -48 -81 0 -27 2
-52 2 -57 1 -8 198 -3 207 5 6 7 7 31 5 146 l-1 82 -30 -2 c-19 -1 -41 -14
-58 -31z"/>
<path d="M6558 3720 c-24 -7 -182 -22 -248 -24 -20 -1 -25 -6 -25 -26 l0 -25
115 -1 115 0 38 39 c21 21 37 40 35 41 -2 2 -15 0 -30 -4z"/>
<path d="M3125 3700 c-3 -5 -1 -10 4 -10 6 0 11 5 11 10 0 6 -2 10 -4 10 -3 0
-8 -4 -11 -10z"/>
<path d="M3535 3533 c4 -92 7 -180 6 -195 l-1 -27 152 4 c84 2 190 4 236 5
l83 2 -23 27 c-101 114 -302 272 -427 336 l-33 17 7 -169z"/>
<path d="M5776 3690 c-1 -3 -2 -16 -2 -30 l1 -25 190 0 c105 0 216 2 248 3 53
4 57 6 57 28 0 13 -3 25 -7 25 -25 4 -485 3 -487 -1z"/>
<path d="M3207 3676 c-30 -13 -47 -32 -47 -54 0 -17 47 7 79 42 27 29 15 33
-32 12z"/>
<path d="M7877 3662 l-57 -3 2 -119 3 -119 120 3 120 2 0 113 c0 62 -2 116 -5
119 -5 7 -87 9 -183 4z"/>
<path d="M8079 3649 c-4 -9 -6 -18 -4 -21 2 -2 5 -49 6 -103 l1 -100 89 3 88
3 32 41 c23 28 32 50 32 74 -1 19 -2 54 -2 79 l-1 45 -116 -2 c-95 -3 -118 -6
-125 -19z"/>
<path d="M8339 3658 c-4 -38 -3 -118 1 -118 13 0 72 101 67 115 -8 18 -66 21
-68 3z"/>
<path d="M7414 3652 l-101 -3 3 -112 c1 -62 2 -116 3 -120 1 -10 224 -5 232 6
4 5 4 180 -1 227 0 3 -8 6 -17 5 -10 0 -63 -1 -119 -3z"/>
<path d="M7572 3535 l3 -120 28 1 c15 1 68 2 117 3 l91 1 -3 118 -3 117 -118
0 -118 1 3 -121z"/>
<path d="M3059 3626 c-31 -12 -90 -46 -132 -75 l-77 -53 0 -444 0 -444 155 0
c151 0 158 1 157 30 0 3 -3 55 -6 115 -3 61 -8 182 -11 270 -11 349 -13 364
-47 431 l-32 61 32 61 c18 33 28 63 24 66 -4 2 -33 -5 -63 -18z"/>
<path d="M6878 3642 c-90 -3 -86 3 -78 -147 l5 -90 110 -1 c61 -1 115 1 121 3
9 3 10 61 5 218 -1 22 -9 23 -163 17z"/>
<path d="M7059 3640 c-6 -24 4 -226 11 -230 5 -3 37 -5 72 -3 35 1 85 2 111 2
l48 1 -3 118 -3 117 -117 0 c-65 1 -119 -2 -119 -5z"/>
<path d="M6123 3623 c-4 -1 -84 -4 -177 -5 l-170 -3 1 -60 c1 -33 1 -87 2
-120 l1 -61 88 2 c48 1 158 3 245 5 96 2 157 8 158 14 1 11 1 93 0 176 l-1 56
-70 -1 c-38 -1 -73 -2 -77 -3z"/>
<path d="M4792 3592 l-32 -3 2 -111 c2 -93 6 -111 20 -119 11 -6 90 -8 186 -5
92 2 193 5 225 5 l58 1 -2 120 -1 120 -94 0 -95 0 -67 -62 c-37 -35 -96 -89
-131 -121 -35 -32 -65 -56 -68 -53 -6 6 -11 1 129 129 59 53 104 98 100 99
-15 3 -198 3 -230 0z"/>
<path d="M660 3556 c-41 -18 -93 -42 -115 -53 l-41 -21 2 -104 c1 -56 3 -172
4 -256 l2 -153 114 2 c63 0 117 6 120 11 7 11 6 113 -1 293 -2 66 -5 164 -5
218 -1 53 -2 97 -3 96 -1 0 -36 -15 -77 -33z"/>
<path d="M4549 3549 c0 -21 0 -59 0 -84 0 -25 0 -62 0 -83 l1 -38 98 2 97 1 0
119 0 119 -97 2 -98 1 -1 -39z"/>
<path d="M970 3483 c-8 -1 -53 -4 -100 -5 l-85 -3 1 -155 c1 -85 2 -198 3
-251 l1 -96 98 4 c53 2 102 5 108 7 11 4 11 44 1 383 -2 62 -5 114 -8 116 -2
2 -11 2 -19 0z"/>
<path d="M1032 3482 l-24 -4 6 -181 c2 -100 5 -212 5 -249 l1 -68 133 4 132 3
2 252 1 252 -116 -3 c-64 -2 -128 -4 -140 -6z"/>
<path d="M294 3385 c-121 -59 -198 -102 -211 -119 -19 -24 -21 -40 -22 -154 0
-70 2 -134 5 -143 4 -13 18 -15 87 -12 45 2 138 5 207 7 69 2 128 5 132 5 6 1
1 502 -5 507 -1 1 -88 -40 -193 -91z"/>
<path d="M8143 3412 l-61 -3 1 -78 c1 -44 6 -77 11 -74 15 10 135 137 138 147
4 11 -8 12 -89 8z"/>
<path d="M7646 3403 c-1 -1 -75 -3 -165 -4 l-162 -1 3 -250 3 -249 130 2 130
2 75 40 c41 22 94 53 116 68 l41 28 -3 138 c-1 76 -3 159 -3 184 l-1 45 -81 0
c-44 0 -81 -2 -83 -3z"/>
<path d="M7829 3398 c-2 -27 3 -343 5 -346 4 -4 121 82 184 136 l52 44 0 89 0
89 -120 0 c-89 0 -120 -3 -121 -12z"/>
<path d="M7118 3392 l-56 -3 3 -102 c2 -56 3 -110 4 -119 1 -17 34 -18 224 -9
16 1 17 11 14 111 -2 61 -7 113 -11 118 -8 7 -80 9 -178 4z"/>
<path d="M6808 3380 c-1 -3 -2 -56 -2 -117 -1 -111 -1 -113 22 -113 12 0 22
-5 22 -10 0 -6 -8 -10 -17 -8 -16 3 -18 -9 -20 -120 l-1 -123 123 2 123 1 -3
116 c-2 65 -4 120 -4 123 -1 4 -44 6 -96 4 -52 -1 -95 2 -95 7 0 4 42 8 94 8
53 0 96 4 98 10 2 5 2 59 0 120 l-3 110 -120 -2 c-65 -2 -120 -5 -121 -8z"/>
<path d="M5858 3362 l-78 -3 4 -157 c3 -86 5 -172 5 -190 l1 -32 81 50 c155
96 230 160 369 314 l24 27 -164 -3 c-91 -2 -200 -4 -242 -6z"/>
<path d="M5388 3352 c-95 -2 -118 -5 -119 -17 0 -8 -1 -33 -1 -55 0 -22 1 -69
1 -104 l1 -63 113 3 c61 2 167 5 234 7 71 1 124 6 126 12 3 8 2 117 -2 201 -1
20 -6 21 -118 20 -65 -1 -171 -2 -235 -4z"/>
<path d="M5067 3343 c-1 -1 -68 -3 -149 -5 -89 -3 -152 -9 -160 -16 -9 -7 -13
-29 -12 -64 1 -29 3 -76 3 -105 l1 -52 248 6 c136 3 250 9 253 14 3 5 4 46 3
91 -2 46 -3 95 -3 109 l-1 26 -91 -1 c-50 -1 -91 -2 -92 -3z"/>
<path d="M6165 3246 c-98 -100 -202 -181 -318 -246 l-58 -32 3 -51 3 -51 170
3 c168 4 290 7 311 10 7 1 10 29 8 79 -2 42 -4 148 -6 235 -1 86 -5 157 -8
157 -3 -1 -50 -47 -105 -104z"/>
<path d="M4633 3332 l-83 -3 -1 -29 c0 -17 0 -50 0 -75 0 -25 0 -65 0 -89 l1
-44 43 4 c23 1 65 3 93 3 l50 1 0 115 c-1 67 -5 116 -11 117 -5 2 -47 2 -92 0z"/>
<path d="M3746 3303 c-1 -2 -47 -3 -102 -4 l-100 -1 3 -91 c1 -51 5 -141 7
-202 2 -60 5 -129 5 -152 l1 -41 143 3 c78 2 187 4 243 5 l101 2 -3 76 c-2 43
-5 151 -8 242 l-4 165 -142 0 c-78 0 -143 -1 -144 -2z"/>
<path d="M3265 3290 l-90 -5 3 -90 c8 -201 9 -243 11 -316 l1 -75 168 3 c92 2
172 6 178 8 6 2 10 25 8 57 -1 29 -5 134 -8 232 -4 99 -9 182 -12 185 -7 7
-142 8 -259 1z"/>
<path d="M4044 3272 c2 -4 7 -104 10 -222 3 -117 10 -218 15 -223 13 -13 12
424 -1 441 -11 13 -32 17 -24 4z"/>
<path d="M7278 3145 c-2 -3 -50 -5 -107 -6 l-102 -1 3 -122 3 -121 109 0 c64
0 114 4 120 11 17 16 9 231 -9 237 -7 3 -15 4 -17 2z"/>
<path d="M6311 3119 c-15 -6 -17 -20 -15 -119 1 -61 5 -114 8 -117 5 -6 214
-3 463 6 l32 1 -2 121 -2 120 -233 -3 c-128 -2 -241 -6 -251 -9z"/>
<path d="M5333 3102 l-63 -3 0 -59 0 -60 140 4 c80 2 140 0 140 -5 0 -5 -55
-10 -122 -11 -68 0 -130 -1 -138 -2 -11 -1 -15 -14 -15 -56 l0 -55 154 3 153
3 79 45 c115 67 116 65 -28 66 -40 0 -73 4 -73 9 0 5 26 8 58 8 31 -1 74 -1
95 0 l37 1 0 61 0 61 -177 -4 c-98 -2 -206 -4 -240 -6z"/>
<path d="M5046 3093 c-1 -1 -68 -3 -149 -4 l-147 -1 5 -111 c2 -62 5 -117 5
-122 0 -6 25 -10 63 -9 34 1 98 2 143 3 l81 1 32 50 c42 65 60 74 158 79 21 1
22 5 20 60 l-2 59 -103 -1 c-57 -1 -105 -3 -106 -4z"/>
<path d="M4583 3082 c-36 -4 -34 5 -34 -122 0 -38 0 -81 0 -96 l1 -25 88 2
c48 1 92 4 97 6 10 3 9 222 0 232 -5 5 -111 7 -152 3z"/>
<path d="M836 2960 c-33 -3 -50 -10 -51 -20 -1 -8 -5 -47 -9 -86 -4 -39 -9
-82 -11 -95 -3 -13 -8 -52 -11 -87 l-7 -63 273 1 c150 1 268 5 261 10 -8 4 -9
10 -3 13 5 4 10 77 10 173 l1 166 -202 -4 c-111 -1 -224 -5 -251 -8z"/>
<path d="M5205 2962 c-61 -5 -75 -13 -105 -56 -16 -25 -30 -47 -30 -51 0 -3
42 -5 93 -3 l92 4 3 55 c2 40 -1 55 -10 55 -7 0 -26 -2 -43 -4z"/>
<path d="M537 2953 c-1 0 -101 -4 -222 -6 -121 -3 -223 -6 -228 -6 -12 -1 39
-94 65 -117 12 -12 51 -40 85 -63 70 -46 73 -50 79 -94 3 -18 7 -38 9 -44 3
-10 51 -13 195 -13 l190 0 1 33 c0 17 2 41 5 52 4 24 24 188 27 230 l2 30
-103 0 c-57 0 -104 -1 -105 -2z"/>
<path d="M5705 2917 c-22 -12 -41 -25 -43 -29 -2 -5 -10 -8 -17 -8 -8 0 -17
-4 -20 -10 -4 -6 18 -9 59 -7 l66 2 0 38 c0 20 -1 37 -2 37 -2 0 -21 -10 -43
-23z"/>
<path d="M62 2771 l-1 -161 125 0 126 0 -7 43 c-4 23 -9 45 -12 50 -2 4 -37
29 -76 56 -80 54 -93 67 -130 130 l-25 44 0 -162z"/>
<path d="M7393 2862 l-63 -3 0 -34 0 -34 68 28 c37 15 74 30 82 33 25 8 -19
13 -87 10z"/>
<path d="M6900 2850 l-85 -5 0 -93 0 -93 35 5 c67 10 195 38 202 45 8 7 12 46
9 102 -1 35 -3 37 -38 40 -21 2 -76 2 -123 -1z"/>
<path d="M7076 2850 c-4 -8 1 -130 5 -134 2 -2 56 13 119 33 123 39 121 37
111 103 -1 8 -232 6 -235 -2z"/>
<path d="M6506 2843 c-1 -2 -48 -3 -104 -4 l-101 -1 2 -106 2 -107 140 0 c128
0 170 3 308 21 48 7 49 8 49 64 0 11 0 47 -1 80 l-1 59 -146 -2 c-80 -1 -147
-3 -148 -4z"/>
<path d="M5963 2832 l-172 -2 3 -103 c2 -56 5 -106 5 -110 1 -6 471 -4 488 2
2 1 2 49 0 109 l-2 107 -75 0 c-41 0 -152 -1 -247 -3z"/>
<path d="M5547 2819 c-12 -4 -76 -38 -142 -76 -111 -63 -120 -71 -123 -101
l-3 -32 239 0 239 0 -2 93 c-2 50 -4 99 -4 107 -1 13 -17 16 -91 15 -50 0
-100 -3 -113 -6z"/>
<path d="M5115 2812 l-80 -3 -38 -52 c-20 -29 -56 -72 -79 -97 l-42 -45 125
-3 c122 -3 125 -3 192 29 l67 33 0 71 0 71 -32 -1 c-18 0 -69 -1 -113 -3z"/>
<path d="M5279 2816 c-4 -3 -5 -126 -1 -126 10 0 222 120 222 126 0 3 -217 3
-221 0z"/>
<path d="M4583 2802 c-18 -2 -33 -7 -34 -13 0 -5 0 -38 0 -74 0 -36 0 -74 0
-85 1 -19 8 -20 102 -20 l100 0 -3 97 -3 97 -65 1 c-36 0 -80 -1 -97 -3z"/>
<path d="M4763 2708 l2 -98 46 0 c50 0 46 -3 147 118 28 35 52 68 52 73 0 6
-46 9 -125 7 l-125 -3 3 -97z"/>
<path d="M3967 2784 c-1 -2 -90 -5 -197 -8 -107 -2 -198 -5 -202 -5 -4 -1 -5
-29 -3 -63 2 -35 4 -71 4 -80 1 -17 19 -18 241 -18 l240 0 0 85 c0 61 -4 85
-12 86 -7 0 -26 2 -41 3 -15 1 -29 1 -30 0z"/>
<path d="M4069 2775 c-7 -6 -2 -155 5 -163 3 -3 6 34 6 81 0 84 -1 92 -11 82z"/>
<path d="M3203 2761 c-5 -3 -8 -17 -6 -31 1 -14 3 -46 4 -72 l2 -48 173 0
c103 0 174 4 176 10 2 5 1 41 0 80 l-4 71 -168 -2 c-93 -1 -172 -5 -177 -8z"/>
<path d="M5210 2634 l-45 -24 49 3 c38 1 50 6 52 19 4 28 -7 28 -56 2z"/>
<path d="M2163 2091 c-27 -20 -2 -38 45 -32 9 1 12 -21 12 -84 0 -78 2 -85 20
-85 18 0 20 7 20 86 0 82 1 85 23 84 36 -3 44 -1 44 15 0 8 -3 16 -6 16 -23 5
-152 4 -158 0z"/>
<path d="M2390 1994 c0 -97 1 -104 20 -104 17 0 20 7 20 38 0 21 2 41 4 43 3
3 23 3 45 1 38 -4 40 -6 43 -40 2 -26 8 -38 21 -40 15 -3 17 7 17 101 0 95 -2
105 -17 103 -17 -3 -19 -10 -22 -63 -1 -20 -6 -23 -45 -23 l-45 0 -3 42 c-2
30 -8 42 -20 44 -16 2 -18 -8 -18 -102z"/>
<path d="M10 1897 l0 -178 33 3 32 3 0 68 c-1 76 -11 70 108 69 l67 0 0 29 c0
21 -5 29 -17 30 -10 1 -49 2 -88 3 l-70 1 0 42 c-1 23 4 44 10 46 5 2 50 3 98
2 l88 -1 -3 29 -3 30 -128 1 -127 1 0 -178z"/>
<path d="M480 2064 c-67 -29 -110 -93 -110 -164 0 -109 74 -180 188 -180 96 0
159 54 177 152 26 136 -124 249 -255 192z m123 -56 c71 -37 90 -145 34 -195
-47 -44 -92 -49 -147 -17 -49 29 -67 119 -34 170 32 48 100 68 147 42z"/>
<path d="M870 2072 c-6 -2 -10 -71 -10 -178 l0 -175 33 3 c32 3 32 3 32 58 l0
55 40 3 c39 2 41 1 79 -58 36 -56 41 -60 77 -60 l39 0 -45 67 c-40 59 -43 68
-28 74 61 23 80 124 34 173 -13 14 -39 28 -57 32 -37 7 -178 11 -194 6z m194
-72 c26 -21 26 -51 1 -76 -20 -20 -34 -24 -83 -24 l-58 0 0 53 c1 28 4 55 9
58 13 9 117 1 131 -11z"/>
<path d="M1528 2067 c-28 -10 -68 -46 -68 -61 0 -6 10 -17 21 -24 19 -12 24
-11 48 12 36 34 75 34 98 0 16 -24 16 -28 -1 -57 -9 -18 -52 -61 -96 -97 -63
-52 -79 -71 -79 -92 l-1 -28 131 0 130 0 -3 28 c-3 27 -4 27 -76 29 -41 0 -75
3 -77 5 -2 2 26 27 61 56 68 56 87 86 85 140 -1 45 -15 67 -55 86 -36 17 -78
18 -118 3z"/>
<path d="M1863 2072 c-17 -3 -23 -10 -23 -30 -1 -15 -3 -53 -6 -86 -7 -71 0
-78 77 -70 52 6 57 4 77 -21 52 -66 -37 -118 -117 -68 -21 14 -25 13 -45 -6
l-21 -22 25 -19 c54 -42 169 -40 207 4 74 86 7 205 -108 192 l-40 -4 5 36 c3
20 5 38 6 39 0 1 28 1 63 1 34 0 67 0 73 1 15 1 25 51 10 51 -78 4 -166 4
-183 2z"/>
<path d="M3061 2057 c-5 -12 -23 -68 -42 -124 -18 -56 -35 -100 -39 -97 -3 3
-21 56 -40 117 l-36 112 -37 3 -36 3 59 -172 c33 -94 60 -173 60 -175 0 -11
61 -2 65 9 2 6 20 61 41 120 l37 109 42 -119 c39 -112 43 -118 71 -121 l29 -3
61 176 61 175 -39 0 c-23 0 -38 -5 -38 -12 0 -7 -17 -64 -37 -127 l-37 -114
-42 128 c-38 120 -43 128 -68 131 -20 2 -29 -3 -35 -19z"/>
<path d="M3518 2013 c-50 -112 -65 -146 -83 -188 -9 -22 -23 -55 -31 -72 l-14
-33 33 0 c29 0 35 5 52 42 l20 43 79 1 78 0 21 -43 c18 -38 25 -43 54 -43 l33
0 -14 33 c-43 100 -137 311 -140 314 -2 2 -16 6 -30 9 -25 4 -29 -1 -58 -63z
m102 -130 c9 -20 6 -21 -46 -21 -61 1 -60 -1 -21 86 l20 47 19 -45 c11 -25 24
-55 28 -67z"/>
<path d="M3871 2070 c-4 -3 -7 -81 -6 -175 l0 -170 33 -3 32 -3 0 60 c0 49 3
60 18 63 39 8 62 -6 102 -63 38 -55 44 -59 81 -59 l39 0 -45 61 c-25 34 -45
65 -45 69 0 5 9 11 19 15 28 9 54 54 54 95 0 84 -44 112 -181 114 -51 0 -97
-1 -101 -4z m171 -59 c23 -1 48 -28 48 -52 0 -38 -35 -59 -100 -59 l-60 0 0
53 c0 30 2 56 5 58 4 4 40 4 107 0z"/>
<path d="M4297 2072 c-9 -2 -17 -7 -18 -10 -1 -10 -1 -291 0 -320 1 -22 3 -23
90 -21 60 1 102 7 129 19 85 38 120 135 83 233 -13 35 -76 85 -115 92 -39 8
-144 12 -169 7z m174 -72 c26 -14 59 -69 59 -98 0 -40 -28 -90 -59 -106 -16
-9 -52 -16 -79 -16 l-49 0 2 113 c1 61 2 115 3 119 3 10 100 0 123 -12z"/>
<path d="M5038 2058 c-13 -24 -148 -328 -148 -335 0 -1 15 -3 33 -3 30 0 35 4
47 40 7 22 16 40 19 41 3 1 41 2 84 3 l78 2 19 -43 c16 -37 23 -43 49 -43 17
0 31 4 31 9 0 8 -138 330 -145 339 -1 2 -14 5 -28 8 -20 3 -29 -1 -39 -18z
m69 -144 l21 -51 -55 0 c-36 0 -53 3 -50 11 2 6 12 35 22 64 22 60 30 57 62
-24z"/>
<path d="M5366 2071 c-2 -3 -4 -84 -4 -178 l0 -173 122 0 c68 0 125 2 128 5 3
3 3 17 0 30 -4 24 -7 25 -93 25 l-89 0 0 144 0 144 -30 4 c-17 3 -32 2 -34 -1z"/>
<path d="M5726 2070 c-2 -3 -3 -83 -3 -177 l0 -173 86 0 c131 1 193 35 224
125 16 49 7 113 -23 156 -35 49 -84 67 -189 71 -51 2 -94 1 -95 -2z m191 -71
c55 -30 74 -116 36 -166 -28 -38 -60 -53 -115 -53 l-48 0 0 119 0 118 53 -3
c28 -2 62 -9 74 -15z"/>
<path d="M6200 2072 l-36 -3 1 -172 0 -172 133 -3 133 -3 -3 28 c-3 27 -4 28
-73 30 -38 1 -82 2 -96 2 -23 1 -27 6 -31 35 -6 54 -3 56 87 56 86 0 97 5 87
43 -4 14 -17 17 -88 17 l-84 0 0 43 0 43 88 -1 c105 -1 107 -1 108 30 2 21 -3
25 -25 26 -103 3 -171 4 -201 1z"/>
<path d="M6554 2071 c-2 -2 -4 -82 -4 -178 l0 -173 30 0 c27 0 30 3 31 33 1
17 0 44 -1 58 -1 24 3 27 36 31 35 4 39 2 82 -59 43 -59 48 -63 85 -63 l39 0
-47 66 c-38 52 -45 68 -34 75 8 5 17 9 22 9 13 0 47 64 47 90 0 31 -32 85 -59
100 -19 10 -218 20 -227 11z m194 -70 c15 -8 22 -21 22 -41 0 -41 -32 -60
-102 -60 l-57 0 0 54 c1 43 5 56 18 58 33 7 97 1 119 -11z"/>
<path d="M6983 2072 c-23 -3 -23 -5 -23 -178 l0 -174 30 0 c34 0 32 -9 31 140
l0 105 19 -25 c10 -14 34 -49 52 -77 18 -29 36 -53 39 -53 4 0 30 35 58 77
l51 77 1 -39 c0 -22 1 -77 1 -122 l1 -83 33 0 34 0 0 175 0 175 -37 0 c-36 0
-40 -3 -88 -80 l-50 -80 -50 79 c-51 80 -62 89 -102 83z"/>
<path d="M7556 2046 c-36 -76 -136 -310 -136 -317 0 -5 13 -9 30 -9 25 0 32 6
49 43 l19 43 79 -1 78 0 20 -42 c17 -38 23 -43 52 -43 18 0 33 2 33 4 0 3 -25
62 -56 133 -101 233 -92 218 -124 219 -23 1 -32 -5 -44 -30z m68 -112 c14 -31
26 -60 26 -64 0 -4 -25 -7 -55 -7 l-54 0 15 36 c9 20 20 48 26 64 5 15 11 27
13 27 2 0 15 -25 29 -56z"/>
<path d="M7890 1895 l0 -175 30 0 c17 0 30 5 31 13 0 6 0 60 0 120 0 59 2 107
3 107 2 0 45 -54 96 -120 79 -102 97 -120 121 -120 l27 0 -1 175 0 175 -32 0
-31 0 1 -116 1 -116 -29 33 c-16 19 -56 71 -90 116 -55 74 -65 83 -94 83 l-33
0 0 -175z"/>
</g>
</svg>
